solid ascii
 facet normal 0 0.997564 -0.0697566
  outer loop
   vertex -0.675 0.0571 0
   vertex 0.675 0.0571 0
   vertex -0.675 0.0565443 -0.00794678
  endloop
 endfacet
 facet normal 0 0.997564 -0.0697566
  outer loop
   vertex -0.675 0.0565443 -0.00794678
   vertex 0.675 0.0571 0
   vertex 0.675 0.0565443 -0.00794678
  endloop
 endfacet
 facet normal 0 0.978148 -0.207912
  outer loop
   vertex -0.675 0.0565443 -0.00794678
   vertex 0.675 0.0565443 -0.00794678
   vertex -0.675 0.054888 -0.0157389
  endloop
 endfacet
 facet normal 0 0.978148 -0.207912
  outer loop
   vertex -0.675 0.054888 -0.0157389
   vertex 0.675 0.0565443 -0.00794678
   vertex 0.675 0.054888 -0.0157389
  endloop
 endfacet
 facet normal 0 0.939693 -0.34202
  outer loop
   vertex -0.675 0.054888 -0.0157389
   vertex 0.675 0.054888 -0.0157389
   vertex -0.675 0.0521634 -0.0232247
  endloop
 endfacet
 facet normal 0 0.939693 -0.34202
  outer loop
   vertex 0.675 0.0521634 -0.0232247
   vertex -0.675 0.0521634 -0.0232247
   vertex 0.675 0.054888 -0.0157389
  endloop
 endfacet
 facet normal 0 0.882948 -0.469471
  outer loop
   vertex -0.675 0.0521634 -0.0232247
   vertex 0.675 0.0521634 -0.0232247
   vertex -0.675 0.0484235 -0.0302584
  endloop
 endfacet
 facet normal 0 0.882948 -0.469471
  outer loop
   vertex -0.675 0.0484235 -0.0302584
   vertex 0.675 0.0521634 -0.0232247
   vertex 0.675 0.0484235 -0.0302584
  endloop
 endfacet
 facet normal 0 0.809017 -0.587785
  outer loop
   vertex -0.675 0.0484235 -0.0302584
   vertex 0.675 0.0484235 -0.0302584
   vertex -0.675 0.0437411 -0.0367032
  endloop
 endfacet
 facet normal 0 0.809017 -0.587785
  outer loop
   vertex 0.675 0.0437411 -0.0367032
   vertex -0.675 0.0437411 -0.0367032
   vertex 0.675 0.0484235 -0.0302584
  endloop
 endfacet
 facet normal 0 0.71934 -0.694658
  outer loop
   vertex -0.675 0.0437411 -0.0367032
   vertex 0.675 0.0437411 -0.0367032
   vertex -0.675 0.0382074 -0.0424336
  endloop
 endfacet
 facet normal 0 0.71934 -0.694658
  outer loop
   vertex 0.675 0.0382074 -0.0424336
   vertex -0.675 0.0382074 -0.0424336
   vertex 0.675 0.0437411 -0.0367032
  endloop
 endfacet
 facet normal 0 0.615661 -0.788011
  outer loop
   vertex -0.675 0.0382074 -0.0424336
   vertex 0.675 0.0382074 -0.0424336
   vertex -0.675 0.0319299 -0.047338
  endloop
 endfacet
 facet normal 0 0.615661 -0.788011
  outer loop
   vertex -0.675 0.0319299 -0.047338
   vertex 0.675 0.0382074 -0.0424336
   vertex 0.675 0.0319299 -0.047338
  endloop
 endfacet
 facet normal 0 0.5 -0.866025
  outer loop
   vertex -0.675 0.0319299 -0.047338
   vertex 0.675 0.0319299 -0.047338
   vertex -0.675 0.025031 -0.0513211
  endloop
 endfacet
 facet normal 0 0.5 -0.866025
  outer loop
   vertex 0.675 0.025031 -0.0513211
   vertex -0.675 0.025031 -0.0513211
   vertex 0.675 0.0319299 -0.047338
  endloop
 endfacet
 facet normal 0 0.374606 -0.927184
  outer loop
   vertex -0.675 0.025031 -0.0513211
   vertex 0.675 0.025031 -0.0513211
   vertex -0.675 0.0176449 -0.0543053
  endloop
 endfacet
 facet normal 0 0.374606 -0.927184
  outer loop
   vertex 0.675 0.0176449 -0.0543053
   vertex -0.675 0.0176449 -0.0543053
   vertex 0.675 0.025031 -0.0513211
  endloop
 endfacet
 facet normal 0 0.241922 -0.970296
  outer loop
   vertex -0.675 0.0176449 -0.0543053
   vertex 0.675 0.0176449 -0.0543053
   vertex -0.675 0.00991531 -0.0562325
  endloop
 endfacet
 facet normal 0 0.241922 -0.970296
  outer loop
   vertex 0.675 0.00991531 -0.0562325
   vertex -0.675 0.00991531 -0.0562325
   vertex 0.675 0.0176449 -0.0543053
  endloop
 endfacet
 facet normal 0 0.104528 -0.994522
  outer loop
   vertex -0.675 0.00991531 -0.0562325
   vertex 0.675 0.00991531 -0.0562325
   vertex -0.675 0.00199276 -0.0570652
  endloop
 endfacet
 facet normal 0 0.104528 -0.994522
  outer loop
   vertex 0.675 0.00199276 -0.0570652
   vertex -0.675 0.00199276 -0.0570652
   vertex 0.675 0.00991531 -0.0562325
  endloop
 endfacet
 facet normal -0 -0.0348993 -0.999391
  outer loop
   vertex -0.675 0.00199276 -0.0570652
   vertex 0.675 0.00199276 -0.0570652
   vertex -0.675 -0.00596858 -0.0567872
  endloop
 endfacet
 facet normal 0 -0.0348993 -0.999391
  outer loop
   vertex 0.675 -0.00596858 -0.0567872
   vertex -0.675 -0.00596858 -0.0567872
   vertex 0.675 0.00199276 -0.0570652
  endloop
 endfacet
 facet normal -0 -0.173648 -0.984808
  outer loop
   vertex -0.675 -0.00596858 -0.0567872
   vertex 0.675 -0.00596858 -0.0567872
   vertex -0.675 -0.0138137 -0.0554039
  endloop
 endfacet
 facet normal 0 -0.173648 -0.984808
  outer loop
   vertex 0.675 -0.0138137 -0.0554039
   vertex -0.675 -0.0138137 -0.0554039
   vertex 0.675 -0.00596858 -0.0567872
  endloop
 endfacet
 facet normal -0 -0.309017 -0.951057
  outer loop
   vertex -0.675 -0.0138137 -0.0554039
   vertex 0.675 -0.0138137 -0.0554039
   vertex -0.675 -0.02139 -0.0529422
  endloop
 endfacet
 facet normal 0 -0.309017 -0.951057
  outer loop
   vertex 0.675 -0.02139 -0.0529422
   vertex -0.675 -0.02139 -0.0529422
   vertex 0.675 -0.0138137 -0.0554039
  endloop
 endfacet
 facet normal -0 -0.438371 -0.898794
  outer loop
   vertex -0.675 -0.02139 -0.0529422
   vertex 0.675 -0.02139 -0.0529422
   vertex -0.675 -0.02855 -0.0494501
  endloop
 endfacet
 facet normal -0 -0.438371 -0.898794
  outer loop
   vertex 0.675 -0.02139 -0.0529422
   vertex 0.675 -0.02855 -0.0494501
   vertex -0.675 -0.02855 -0.0494501
  endloop
 endfacet
 facet normal -0 -0.559193 -0.829037
  outer loop
   vertex -0.675 -0.02855 -0.0494501
   vertex 0.675 -0.02855 -0.0494501
   vertex -0.675 -0.0351543 -0.0449954
  endloop
 endfacet
 facet normal 0 -0.559193 -0.829037
  outer loop
   vertex 0.675 -0.0351543 -0.0449954
   vertex -0.675 -0.0351543 -0.0449954
   vertex 0.675 -0.02855 -0.0494501
  endloop
 endfacet
 facet normal -0 -0.669131 -0.743145
  outer loop
   vertex -0.675 -0.0351543 -0.0449954
   vertex 0.675 -0.0351543 -0.0449954
   vertex -0.675 -0.0410743 -0.039665
  endloop
 endfacet
 facet normal 0 -0.669131 -0.743145
  outer loop
   vertex 0.675 -0.0410743 -0.039665
   vertex -0.675 -0.0410743 -0.039665
   vertex 0.675 -0.0351543 -0.0449954
  endloop
 endfacet
 facet normal -0 -0.766044 -0.642788
  outer loop
   vertex -0.675 -0.0410743 -0.039665
   vertex 0.675 -0.0410743 -0.039665
   vertex -0.675 -0.0461949 -0.0335625
  endloop
 endfacet
 facet normal 0 -0.766044 -0.642788
  outer loop
   vertex 0.675 -0.0461949 -0.0335625
   vertex -0.675 -0.0461949 -0.0335625
   vertex 0.675 -0.0410743 -0.039665
  endloop
 endfacet
 facet normal -0 -0.848048 -0.529919
  outer loop
   vertex -0.675 -0.0461949 -0.0335625
   vertex 0.675 -0.0461949 -0.0335625
   vertex -0.675 -0.0504163 -0.0268068
  endloop
 endfacet
 facet normal 0 -0.848048 -0.529919
  outer loop
   vertex -0.675 -0.0504163 -0.0268068
   vertex 0.675 -0.0461949 -0.0335625
   vertex 0.675 -0.0504163 -0.0268068
  endloop
 endfacet
 facet normal -0 -0.913546 -0.406736
  outer loop
   vertex -0.675 -0.0504163 -0.0268068
   vertex 0.675 -0.0504163 -0.0268068
   vertex -0.675 -0.0536564 -0.0195294
  endloop
 endfacet
 facet normal 0 -0.913546 -0.406736
  outer loop
   vertex 0.675 -0.0536564 -0.0195294
   vertex -0.675 -0.0536564 -0.0195294
   vertex 0.675 -0.0504163 -0.0268068
  endloop
 endfacet
 facet normal -0 -0.961262 -0.275637
  outer loop
   vertex -0.675 -0.0536564 -0.0195294
   vertex 0.675 -0.0536564 -0.0195294
   vertex -0.675 -0.0558522 -0.0118718
  endloop
 endfacet
 facet normal 0 -0.961262 -0.275637
  outer loop
   vertex 0.675 -0.0558522 -0.0118718
   vertex -0.675 -0.0558522 -0.0118718
   vertex 0.675 -0.0536564 -0.0195294
  endloop
 endfacet
 facet normal -0 -0.990268 -0.139173
  outer loop
   vertex -0.675 -0.0558522 -0.0118718
   vertex 0.675 -0.0558522 -0.0118718
   vertex -0.675 -0.0569609 -0.00398309
  endloop
 endfacet
 facet normal 0 -0.990268 -0.139173
  outer loop
   vertex 0.675 -0.0569609 -0.00398309
   vertex -0.675 -0.0569609 -0.00398309
   vertex 0.675 -0.0558522 -0.0118718
  endloop
 endfacet
 facet normal 0 -1 0
  outer loop
   vertex -0.675 -0.0569609 -0.00398309
   vertex 0.675 -0.0569609 -0.00398309
   vertex -0.675 -0.0569609 0.00398309
  endloop
 endfacet
 facet normal 0 -1 0
  outer loop
   vertex 0.675 -0.0569609 0.00398309
   vertex -0.675 -0.0569609 0.00398309
   vertex 0.675 -0.0569609 -0.00398309
  endloop
 endfacet
 facet normal 0 -0.990268 0.139173
  outer loop
   vertex -0.675 -0.0569609 0.00398309
   vertex 0.675 -0.0569609 0.00398309
   vertex -0.675 -0.0558522 0.0118718
  endloop
 endfacet
 facet normal 0 -0.990268 0.139173
  outer loop
   vertex 0.675 -0.0558522 0.0118718
   vertex -0.675 -0.0558522 0.0118718
   vertex 0.675 -0.0569609 0.00398309
  endloop
 endfacet
 facet normal 0 -0.961262 0.275637
  outer loop
   vertex -0.675 -0.0558522 0.0118718
   vertex 0.675 -0.0558522 0.0118718
   vertex -0.675 -0.0536564 0.0195294
  endloop
 endfacet
 facet normal 0 -0.961262 0.275637
  outer loop
   vertex 0.675 -0.0536564 0.0195294
   vertex -0.675 -0.0536564 0.0195294
   vertex 0.675 -0.0558522 0.0118718
  endloop
 endfacet
 facet normal 0 -0.913546 0.406736
  outer loop
   vertex -0.675 -0.0536564 0.0195294
   vertex 0.675 -0.0536564 0.0195294
   vertex -0.675 -0.0504163 0.0268068
  endloop
 endfacet
 facet normal 0 -0.913546 0.406736
  outer loop
   vertex 0.675 -0.0504163 0.0268068
   vertex -0.675 -0.0504163 0.0268068
   vertex 0.675 -0.0536564 0.0195294
  endloop
 endfacet
 facet normal 0 -0.848048 0.529919
  outer loop
   vertex -0.675 -0.0504163 0.0268068
   vertex 0.675 -0.0504163 0.0268068
   vertex -0.675 -0.0461949 0.0335625
  endloop
 endfacet
 facet normal 0 -0.848048 0.529919
  outer loop
   vertex -0.675 -0.0461949 0.0335625
   vertex 0.675 -0.0504163 0.0268068
   vertex 0.675 -0.0461949 0.0335625
  endloop
 endfacet
 facet normal 0 -0.766044 0.642788
  outer loop
   vertex -0.675 -0.0461949 0.0335625
   vertex 0.675 -0.0461949 0.0335625
   vertex -0.675 -0.0410743 0.039665
  endloop
 endfacet
 facet normal 0 -0.766044 0.642788
  outer loop
   vertex 0.675 -0.0410743 0.039665
   vertex -0.675 -0.0410743 0.039665
   vertex 0.675 -0.0461949 0.0335625
  endloop
 endfacet
 facet normal 0 -0.669131 0.743145
  outer loop
   vertex -0.675 -0.0410743 0.039665
   vertex 0.675 -0.0410743 0.039665
   vertex -0.675 -0.0351543 0.0449954
  endloop
 endfacet
 facet normal 0 -0.669131 0.743145
  outer loop
   vertex 0.675 -0.0351543 0.0449954
   vertex -0.675 -0.0351543 0.0449954
   vertex 0.675 -0.0410743 0.039665
  endloop
 endfacet
 facet normal 0 -0.559193 0.829037
  outer loop
   vertex -0.675 -0.0351543 0.0449954
   vertex 0.675 -0.0351543 0.0449954
   vertex -0.675 -0.02855 0.0494501
  endloop
 endfacet
 facet normal 0 -0.559193 0.829037
  outer loop
   vertex 0.675 -0.02855 0.0494501
   vertex -0.675 -0.02855 0.0494501
   vertex 0.675 -0.0351543 0.0449954
  endloop
 endfacet
 facet normal 0 -0.438371 0.898794
  outer loop
   vertex -0.675 -0.02855 0.0494501
   vertex 0.675 -0.02855 0.0494501
   vertex -0.675 -0.02139 0.0529422
  endloop
 endfacet
 facet normal 0 -0.438371 0.898794
  outer loop
   vertex 0.675 -0.02855 0.0494501
   vertex 0.675 -0.02139 0.0529422
   vertex -0.675 -0.02139 0.0529422
  endloop
 endfacet
 facet normal 0 -0.309017 0.951057
  outer loop
   vertex -0.675 -0.02139 0.0529422
   vertex 0.675 -0.02139 0.0529422
   vertex -0.675 -0.0138137 0.0554039
  endloop
 endfacet
 facet normal 0 -0.309017 0.951057
  outer loop
   vertex 0.675 -0.0138137 0.0554039
   vertex -0.675 -0.0138137 0.0554039
   vertex 0.675 -0.02139 0.0529422
  endloop
 endfacet
 facet normal 0 -0.173648 0.984808
  outer loop
   vertex -0.675 -0.0138137 0.0554039
   vertex 0.675 -0.0138137 0.0554039
   vertex -0.675 -0.00596858 0.0567872
  endloop
 endfacet
 facet normal 0 -0.173648 0.984808
  outer loop
   vertex 0.675 -0.00596858 0.0567872
   vertex -0.675 -0.00596858 0.0567872
   vertex 0.675 -0.0138137 0.0554039
  endloop
 endfacet
 facet normal 0 -0.0348993 0.999391
  outer loop
   vertex -0.675 -0.00596858 0.0567872
   vertex 0.675 -0.00596858 0.0567872
   vertex -0.675 0.00199276 0.0570652
  endloop
 endfacet
 facet normal 0 -0.0348993 0.999391
  outer loop
   vertex 0.675 0.00199276 0.0570652
   vertex -0.675 0.00199276 0.0570652
   vertex 0.675 -0.00596858 0.0567872
  endloop
 endfacet
 facet normal 0 0.104528 0.994522
  outer loop
   vertex -0.675 0.00199276 0.0570652
   vertex 0.675 0.00199276 0.0570652
   vertex -0.675 0.00991531 0.0562325
  endloop
 endfacet
 facet normal -0 0.104528 0.994522
  outer loop
   vertex 0.675 0.00991531 0.0562325
   vertex -0.675 0.00991531 0.0562325
   vertex 0.675 0.00199276 0.0570652
  endloop
 endfacet
 facet normal 0 0.241922 0.970296
  outer loop
   vertex -0.675 0.00991531 0.0562325
   vertex 0.675 0.00991531 0.0562325
   vertex -0.675 0.0176449 0.0543053
  endloop
 endfacet
 facet normal -0 0.241922 0.970296
  outer loop
   vertex 0.675 0.0176449 0.0543053
   vertex -0.675 0.0176449 0.0543053
   vertex 0.675 0.00991531 0.0562325
  endloop
 endfacet
 facet normal 0 0.374606 0.927184
  outer loop
   vertex -0.675 0.0176449 0.0543053
   vertex 0.675 0.0176449 0.0543053
   vertex -0.675 0.025031 0.0513211
  endloop
 endfacet
 facet normal -0 0.374606 0.927184
  outer loop
   vertex 0.675 0.025031 0.0513211
   vertex -0.675 0.025031 0.0513211
   vertex 0.675 0.0176449 0.0543053
  endloop
 endfacet
 facet normal 0 0.5 0.866025
  outer loop
   vertex -0.675 0.025031 0.0513211
   vertex 0.675 0.025031 0.0513211
   vertex -0.675 0.0319299 0.047338
  endloop
 endfacet
 facet normal -0 0.5 0.866025
  outer loop
   vertex 0.675 0.0319299 0.047338
   vertex -0.675 0.0319299 0.047338
   vertex 0.675 0.025031 0.0513211
  endloop
 endfacet
 facet normal 0 0.615661 0.788011
  outer loop
   vertex -0.675 0.0319299 0.047338
   vertex 0.675 0.0319299 0.047338
   vertex -0.675 0.0382074 0.0424336
  endloop
 endfacet
 facet normal 0 0.615661 0.788011
  outer loop
   vertex -0.675 0.0382074 0.0424336
   vertex 0.675 0.0319299 0.047338
   vertex 0.675 0.0382074 0.0424336
  endloop
 endfacet
 facet normal 0 0.71934 0.694658
  outer loop
   vertex -0.675 0.0382074 0.0424336
   vertex 0.675 0.0382074 0.0424336
   vertex -0.675 0.0437411 0.0367032
  endloop
 endfacet
 facet normal -0 0.71934 0.694658
  outer loop
   vertex 0.675 0.0437411 0.0367032
   vertex -0.675 0.0437411 0.0367032
   vertex 0.675 0.0382074 0.0424336
  endloop
 endfacet
 facet normal 0 0.809017 0.587785
  outer loop
   vertex -0.675 0.0437411 0.0367032
   vertex 0.675 0.0437411 0.0367032
   vertex -0.675 0.0484235 0.0302584
  endloop
 endfacet
 facet normal -0 0.809017 0.587785
  outer loop
   vertex 0.675 0.0484235 0.0302584
   vertex -0.675 0.0484235 0.0302584
   vertex 0.675 0.0437411 0.0367032
  endloop
 endfacet
 facet normal 0 0.882948 0.469471
  outer loop
   vertex -0.675 0.0484235 0.0302584
   vertex 0.675 0.0484235 0.0302584
   vertex -0.675 0.0521634 0.0232247
  endloop
 endfacet
 facet normal 0 0.882948 0.469471
  outer loop
   vertex -0.675 0.0521634 0.0232247
   vertex 0.675 0.0484235 0.0302584
   vertex 0.675 0.0521634 0.0232247
  endloop
 endfacet
 facet normal 0 0.939693 0.34202
  outer loop
   vertex -0.675 0.0521634 0.0232247
   vertex 0.675 0.0521634 0.0232247
   vertex -0.675 0.054888 0.0157389
  endloop
 endfacet
 facet normal -0 0.939693 0.34202
  outer loop
   vertex 0.675 0.054888 0.0157389
   vertex -0.675 0.054888 0.0157389
   vertex 0.675 0.0521634 0.0232247
  endloop
 endfacet
 facet normal 0 0.978148 0.207912
  outer loop
   vertex -0.675 0.054888 0.0157389
   vertex 0.675 0.054888 0.0157389
   vertex -0.675 0.0565443 0.00794678
  endloop
 endfacet
 facet normal 0 0.978148 0.207912
  outer loop
   vertex -0.675 0.0565443 0.00794678
   vertex 0.675 0.054888 0.0157389
   vertex 0.675 0.0565443 0.00794678
  endloop
 endfacet
 facet normal 0 0.997564 0.0697566
  outer loop
   vertex -0.675 0.0565443 0.00794678
   vertex 0.675 0.0565443 0.00794678
   vertex -0.675 0.0571 0
  endloop
 endfacet
 facet normal 0 0.997564 0.0697566
  outer loop
   vertex -0.675 0.0571 0
   vertex 0.675 0.0565443 0.00794678
   vertex 0.675 0.0571 0
  endloop
 endfacet
 facet normal -1 0 0
  outer loop
   vertex -0.675 -0.0504163 -0.0268068
   vertex -0.675 -0.0536564 -0.0195294
   vertex -0.675 -0.0461949 -0.0335625
  endloop
 endfacet
 facet normal -1 0 0
  outer loop
   vertex -0.675 -0.0461949 -0.0335625
   vertex -0.675 -0.0536564 -0.0195294
   vertex -0.675 -0.0410743 -0.039665
  endloop
 endfacet
 facet normal -1 0 0
  outer loop
   vertex -0.675 -0.0536564 -0.0195294
   vertex -0.675 -0.0558522 -0.0118718
   vertex -0.675 -0.0410743 -0.039665
  endloop
 endfacet
 facet normal -1 0 0
  outer loop
   vertex -0.675 -0.0558522 -0.0118718
   vertex -0.675 -0.0569609 -0.00398309
   vertex -0.675 -0.0410743 -0.039665
  endloop
 endfacet
 facet normal -1 0 0
  outer loop
   vertex -0.675 -0.0569609 -0.00398309
   vertex -0.675 -0.0569609 0.00398309
   vertex -0.675 -0.0410743 -0.039665
  endloop
 endfacet
 facet normal -1 0 -0
  outer loop
   vertex -0.675 -0.0569609 0.00398309
   vertex -0.675 -0.0558522 0.0118718
   vertex -0.675 -0.0410743 -0.039665
  endloop
 endfacet
 facet normal -1 0 -0
  outer loop
   vertex -0.675 -0.0558522 0.0118718
   vertex -0.675 -0.0536564 0.0195294
   vertex -0.675 -0.0410743 -0.039665
  endloop
 endfacet
 facet normal -1 0 0
  outer loop
   vertex -0.675 -0.0410743 -0.039665
   vertex -0.675 -0.0536564 0.0195294
   vertex -0.675 -0.0351543 -0.0449954
  endloop
 endfacet
 facet normal -1 0 0
  outer loop
   vertex -0.675 -0.0351543 -0.0449954
   vertex -0.675 -0.0536564 0.0195294
   vertex -0.675 -0.02855 -0.0494501
  endloop
 endfacet
 facet normal -1 0 0
  outer loop
   vertex -0.675 -0.02855 -0.0494501
   vertex -0.675 -0.0536564 0.0195294
   vertex -0.675 -0.02139 -0.0529422
  endloop
 endfacet
 facet normal -1 0 0
  outer loop
   vertex -0.675 -0.02139 -0.0529422
   vertex -0.675 -0.0536564 0.0195294
   vertex -0.675 -0.0138137 -0.0554039
  endloop
 endfacet
 facet normal -1 0 0
  outer loop
   vertex -0.675 -0.0138137 -0.0554039
   vertex -0.675 -0.0536564 0.0195294
   vertex -0.675 -0.00596858 -0.0567872
  endloop
 endfacet
 facet normal -1 0 0
  outer loop
   vertex -0.675 -0.00596858 -0.0567872
   vertex -0.675 -0.0536564 0.0195294
   vertex -0.675 0.00199276 -0.0570652
  endloop
 endfacet
 facet normal -1 0 0
  outer loop
   vertex -0.675 0.00199276 -0.0570652
   vertex -0.675 -0.0536564 0.0195294
   vertex -0.675 0.00991531 -0.0562325
  endloop
 endfacet
 facet normal -1 0 0
  outer loop
   vertex -0.675 0.00991531 -0.0562325
   vertex -0.675 -0.0536564 0.0195294
   vertex -0.675 0.0176449 -0.0543053
  endloop
 endfacet
 facet normal -1 0 0
  outer loop
   vertex -0.675 0.0176449 -0.0543053
   vertex -0.675 -0.0536564 0.0195294
   vertex -0.675 0.025031 -0.0513211
  endloop
 endfacet
 facet normal -1 0 0
  outer loop
   vertex -0.675 0.025031 -0.0513211
   vertex -0.675 -0.0536564 0.0195294
   vertex -0.675 0.0319299 -0.047338
  endloop
 endfacet
 facet normal -1 0 0
  outer loop
   vertex -0.675 0.0319299 -0.047338
   vertex -0.675 -0.0536564 0.0195294
   vertex -0.675 0.0382074 -0.0424336
  endloop
 endfacet
 facet normal -1 0 0
  outer loop
   vertex -0.675 0.0382074 -0.0424336
   vertex -0.675 -0.0536564 0.0195294
   vertex -0.675 0.0437411 -0.0367032
  endloop
 endfacet
 facet normal -1 0 0
  outer loop
   vertex -0.675 0.0437411 -0.0367032
   vertex -0.675 -0.0536564 0.0195294
   vertex -0.675 0.0484235 -0.0302584
  endloop
 endfacet
 facet normal -1 0 -0
  outer loop
   vertex -0.675 -0.0536564 0.0195294
   vertex -0.675 -0.0504163 0.0268068
   vertex -0.675 0.0484235 -0.0302584
  endloop
 endfacet
 facet normal -1 0 -0
  outer loop
   vertex -0.675 -0.0504163 0.0268068
   vertex -0.675 -0.0461949 0.0335625
   vertex -0.675 0.0484235 -0.0302584
  endloop
 endfacet
 facet normal -1 0 -0
  outer loop
   vertex -0.675 -0.0461949 0.0335625
   vertex -0.675 -0.0410743 0.039665
   vertex -0.675 0.0484235 -0.0302584
  endloop
 endfacet
 facet normal -1 0 -0
  outer loop
   vertex -0.675 -0.0410743 0.039665
   vertex -0.675 -0.0351543 0.0449954
   vertex -0.675 0.0484235 -0.0302584
  endloop
 endfacet
 facet normal -1 0 -0
  outer loop
   vertex -0.675 -0.0351543 0.0449954
   vertex -0.675 -0.02855 0.0494501
   vertex -0.675 0.0484235 -0.0302584
  endloop
 endfacet
 facet normal -1 0 -0
  outer loop
   vertex -0.675 -0.02855 0.0494501
   vertex -0.675 -0.02139 0.0529422
   vertex -0.675 0.0484235 -0.0302584
  endloop
 endfacet
 facet normal -1 0 -0
  outer loop
   vertex -0.675 -0.02139 0.0529422
   vertex -0.675 -0.0138137 0.0554039
   vertex -0.675 0.0484235 -0.0302584
  endloop
 endfacet
 facet normal -1 0 -0
  outer loop
   vertex -0.675 -0.0138137 0.0554039
   vertex -0.675 -0.00596858 0.0567872
   vertex -0.675 0.0484235 -0.0302584
  endloop
 endfacet
 facet normal -1 0 -0
  outer loop
   vertex -0.675 -0.00596858 0.0567872
   vertex -0.675 0.00199276 0.0570652
   vertex -0.675 0.0484235 -0.0302584
  endloop
 endfacet
 facet normal -1 -0 -0
  outer loop
   vertex -0.675 0.00199276 0.0570652
   vertex -0.675 0.00991531 0.0562325
   vertex -0.675 0.0484235 -0.0302584
  endloop
 endfacet
 facet normal -1 -0 -0
  outer loop
   vertex -0.675 0.00991531 0.0562325
   vertex -0.675 0.0176449 0.0543053
   vertex -0.675 0.0484235 -0.0302584
  endloop
 endfacet
 facet normal -1 -0 -0
  outer loop
   vertex -0.675 0.0176449 0.0543053
   vertex -0.675 0.025031 0.0513211
   vertex -0.675 0.0484235 -0.0302584
  endloop
 endfacet
 facet normal -1 -0 -0
  outer loop
   vertex -0.675 0.025031 0.0513211
   vertex -0.675 0.0319299 0.047338
   vertex -0.675 0.0484235 -0.0302584
  endloop
 endfacet
 facet normal -1 -0 -0
  outer loop
   vertex -0.675 0.0319299 0.047338
   vertex -0.675 0.0382074 0.0424336
   vertex -0.675 0.0484235 -0.0302584
  endloop
 endfacet
 facet normal -1 -0 -0
  outer loop
   vertex -0.675 0.0382074 0.0424336
   vertex -0.675 0.0437411 0.0367032
   vertex -0.675 0.0484235 -0.0302584
  endloop
 endfacet
 facet normal -1 -0 -0
  outer loop
   vertex -0.675 0.0437411 0.0367032
   vertex -0.675 0.0484235 0.0302584
   vertex -0.675 0.0484235 -0.0302584
  endloop
 endfacet
 facet normal -1 0 0
  outer loop
   vertex -0.675 0.0484235 -0.0302584
   vertex -0.675 0.0484235 0.0302584
   vertex -0.675 0.0521634 -0.0232247
  endloop
 endfacet
 facet normal -1 0 0
  outer loop
   vertex -0.675 0.0521634 -0.0232247
   vertex -0.675 0.0484235 0.0302584
   vertex -0.675 0.054888 -0.0157389
  endloop
 endfacet
 facet normal -1 0 0
  outer loop
   vertex -0.675 0.054888 -0.0157389
   vertex -0.675 0.0484235 0.0302584
   vertex -0.675 0.0565443 -0.00794678
  endloop
 endfacet
 facet normal -1 0 0
  outer loop
   vertex -0.675 0.0565443 -0.00794678
   vertex -0.675 0.0484235 0.0302584
   vertex -0.675 0.0571 0
  endloop
 endfacet
 facet normal -1 0 0
  outer loop
   vertex -0.675 0.0571 0
   vertex -0.675 0.0484235 0.0302584
   vertex -0.675 0.0565443 0.00794678
  endloop
 endfacet
 facet normal -1 0 0
  outer loop
   vertex -0.675 0.0565443 0.00794678
   vertex -0.675 0.0484235 0.0302584
   vertex -0.675 0.054888 0.0157389
  endloop
 endfacet
 facet normal -1 0 0
  outer loop
   vertex -0.675 0.0521634 0.0232247
   vertex -0.675 0.054888 0.0157389
   vertex -0.675 0.0484235 0.0302584
  endloop
 endfacet
 facet normal 1 0 0
  outer loop
   vertex 0.675 -0.0504163 0.0268068
   vertex 0.675 -0.0536564 0.0195294
   vertex 0.675 -0.0461949 0.0335625
  endloop
 endfacet
 facet normal 1 0 0
  outer loop
   vertex 0.675 -0.0461949 0.0335625
   vertex 0.675 -0.0536564 0.0195294
   vertex 0.675 -0.0410743 0.039665
  endloop
 endfacet
 facet normal 1 0 0
  outer loop
   vertex 0.675 -0.0536564 0.0195294
   vertex 0.675 -0.0558522 0.0118718
   vertex 0.675 -0.0410743 0.039665
  endloop
 endfacet
 facet normal 1 0 0
  outer loop
   vertex 0.675 -0.0558522 0.0118718
   vertex 0.675 -0.0569609 0.00398309
   vertex 0.675 -0.0410743 0.039665
  endloop
 endfacet
 facet normal 1 0 0
  outer loop
   vertex 0.675 -0.0569609 0.00398309
   vertex 0.675 -0.0569609 -0.00398309
   vertex 0.675 -0.0410743 0.039665
  endloop
 endfacet
 facet normal 1 0 -0
  outer loop
   vertex 0.675 -0.0569609 -0.00398309
   vertex 0.675 -0.0558522 -0.0118718
   vertex 0.675 -0.0410743 0.039665
  endloop
 endfacet
 facet normal 1 0 -0
  outer loop
   vertex 0.675 -0.0558522 -0.0118718
   vertex 0.675 -0.0536564 -0.0195294
   vertex 0.675 -0.0410743 0.039665
  endloop
 endfacet
 facet normal 1 0 0
  outer loop
   vertex 0.675 -0.0410743 0.039665
   vertex 0.675 -0.0536564 -0.0195294
   vertex 0.675 -0.0351543 0.0449954
  endloop
 endfacet
 facet normal 1 0 0
  outer loop
   vertex 0.675 -0.0351543 0.0449954
   vertex 0.675 -0.0536564 -0.0195294
   vertex 0.675 -0.02855 0.0494501
  endloop
 endfacet
 facet normal 1 0 0
  outer loop
   vertex 0.675 -0.02855 0.0494501
   vertex 0.675 -0.0536564 -0.0195294
   vertex 0.675 -0.02139 0.0529422
  endloop
 endfacet
 facet normal 1 0 0
  outer loop
   vertex 0.675 -0.02139 0.0529422
   vertex 0.675 -0.0536564 -0.0195294
   vertex 0.675 -0.0138137 0.0554039
  endloop
 endfacet
 facet normal 1 0 0
  outer loop
   vertex 0.675 -0.0138137 0.0554039
   vertex 0.675 -0.0536564 -0.0195294
   vertex 0.675 -0.00596858 0.0567872
  endloop
 endfacet
 facet normal 1 0 0
  outer loop
   vertex 0.675 -0.00596858 0.0567872
   vertex 0.675 -0.0536564 -0.0195294
   vertex 0.675 0.00199276 0.0570652
  endloop
 endfacet
 facet normal 1 0 0
  outer loop
   vertex 0.675 0.00199276 0.0570652
   vertex 0.675 -0.0536564 -0.0195294
   vertex 0.675 0.00991531 0.0562325
  endloop
 endfacet
 facet normal 1 0 0
  outer loop
   vertex 0.675 0.00991531 0.0562325
   vertex 0.675 -0.0536564 -0.0195294
   vertex 0.675 0.0176449 0.0543053
  endloop
 endfacet
 facet normal 1 0 0
  outer loop
   vertex 0.675 0.0176449 0.0543053
   vertex 0.675 -0.0536564 -0.0195294
   vertex 0.675 0.025031 0.0513211
  endloop
 endfacet
 facet normal 1 0 0
  outer loop
   vertex 0.675 0.025031 0.0513211
   vertex 0.675 -0.0536564 -0.0195294
   vertex 0.675 0.0319299 0.047338
  endloop
 endfacet
 facet normal 1 0 0
  outer loop
   vertex 0.675 0.0319299 0.047338
   vertex 0.675 -0.0536564 -0.0195294
   vertex 0.675 0.0382074 0.0424336
  endloop
 endfacet
 facet normal 1 0 0
  outer loop
   vertex 0.675 0.0382074 0.0424336
   vertex 0.675 -0.0536564 -0.0195294
   vertex 0.675 0.0437411 0.0367032
  endloop
 endfacet
 facet normal 1 0 0
  outer loop
   vertex 0.675 0.0437411 0.0367032
   vertex 0.675 -0.0536564 -0.0195294
   vertex 0.675 0.0484235 0.0302584
  endloop
 endfacet
 facet normal 1 0 -0
  outer loop
   vertex 0.675 -0.0536564 -0.0195294
   vertex 0.675 -0.0504163 -0.0268068
   vertex 0.675 0.0484235 0.0302584
  endloop
 endfacet
 facet normal 1 0 -0
  outer loop
   vertex 0.675 -0.0504163 -0.0268068
   vertex 0.675 -0.0461949 -0.0335625
   vertex 0.675 0.0484235 0.0302584
  endloop
 endfacet
 facet normal 1 0 -0
  outer loop
   vertex 0.675 -0.0461949 -0.0335625
   vertex 0.675 -0.0410743 -0.039665
   vertex 0.675 0.0484235 0.0302584
  endloop
 endfacet
 facet normal 1 0 -0
  outer loop
   vertex 0.675 -0.0410743 -0.039665
   vertex 0.675 -0.0351543 -0.0449954
   vertex 0.675 0.0484235 0.0302584
  endloop
 endfacet
 facet normal 1 0 -0
  outer loop
   vertex 0.675 -0.0351543 -0.0449954
   vertex 0.675 -0.02855 -0.0494501
   vertex 0.675 0.0484235 0.0302584
  endloop
 endfacet
 facet normal 1 0 -0
  outer loop
   vertex 0.675 -0.02855 -0.0494501
   vertex 0.675 -0.02139 -0.0529422
   vertex 0.675 0.0484235 0.0302584
  endloop
 endfacet
 facet normal 1 0 -0
  outer loop
   vertex 0.675 -0.02139 -0.0529422
   vertex 0.675 -0.0138137 -0.0554039
   vertex 0.675 0.0484235 0.0302584
  endloop
 endfacet
 facet normal 1 0 -0
  outer loop
   vertex 0.675 -0.0138137 -0.0554039
   vertex 0.675 -0.00596858 -0.0567872
   vertex 0.675 0.0484235 0.0302584
  endloop
 endfacet
 facet normal 1 0 -0
  outer loop
   vertex 0.675 -0.00596858 -0.0567872
   vertex 0.675 0.00199276 -0.0570652
   vertex 0.675 0.0484235 0.0302584
  endloop
 endfacet
 facet normal 1 0 -0
  outer loop
   vertex 0.675 0.00199276 -0.0570652
   vertex 0.675 0.00991531 -0.0562325
   vertex 0.675 0.0484235 0.0302584
  endloop
 endfacet
 facet normal 1 0 -0
  outer loop
   vertex 0.675 0.00991531 -0.0562325
   vertex 0.675 0.0176449 -0.0543053
   vertex 0.675 0.0484235 0.0302584
  endloop
 endfacet
 facet normal 1 0 -0
  outer loop
   vertex 0.675 0.0176449 -0.0543053
   vertex 0.675 0.025031 -0.0513211
   vertex 0.675 0.0484235 0.0302584
  endloop
 endfacet
 facet normal 1 0 -0
  outer loop
   vertex 0.675 0.025031 -0.0513211
   vertex 0.675 0.0319299 -0.047338
   vertex 0.675 0.0484235 0.0302584
  endloop
 endfacet
 facet normal 1 0 -0
  outer loop
   vertex 0.675 0.0319299 -0.047338
   vertex 0.675 0.0382074 -0.0424336
   vertex 0.675 0.0484235 0.0302584
  endloop
 endfacet
 facet normal 1 0 -0
  outer loop
   vertex 0.675 0.0382074 -0.0424336
   vertex 0.675 0.0437411 -0.0367032
   vertex 0.675 0.0484235 0.0302584
  endloop
 endfacet
 facet normal 1 0 -0
  outer loop
   vertex 0.675 0.0437411 -0.0367032
   vertex 0.675 0.0484235 -0.0302584
   vertex 0.675 0.0484235 0.0302584
  endloop
 endfacet
 facet normal 1 0 0
  outer loop
   vertex 0.675 0.0484235 0.0302584
   vertex 0.675 0.0484235 -0.0302584
   vertex 0.675 0.0521634 0.0232247
  endloop
 endfacet
 facet normal 1 0 0
  outer loop
   vertex 0.675 0.0521634 0.0232247
   vertex 0.675 0.0484235 -0.0302584
   vertex 0.675 0.054888 0.0157389
  endloop
 endfacet
 facet normal 1 0 0
  outer loop
   vertex 0.675 0.054888 0.0157389
   vertex 0.675 0.0484235 -0.0302584
   vertex 0.675 0.0565443 0.00794678
  endloop
 endfacet
 facet normal 1 0 0
  outer loop
   vertex 0.675 0.0565443 0.00794678
   vertex 0.675 0.0484235 -0.0302584
   vertex 0.675 0.0571 0
  endloop
 endfacet
 facet normal 1 0 0
  outer loop
   vertex 0.675 0.0571 0
   vertex 0.675 0.0484235 -0.0302584
   vertex 0.675 0.0565443 -0.00794678
  endloop
 endfacet
 facet normal 1 0 0
  outer loop
   vertex 0.675 0.0565443 -0.00794678
   vertex 0.675 0.0484235 -0.0302584
   vertex 0.675 0.054888 -0.0157389
  endloop
 endfacet
 facet normal 1 0 0
  outer loop
   vertex 0.675 0.0521634 -0.0232247
   vertex 0.675 0.054888 -0.0157389
   vertex 0.675 0.0484235 -0.0302584
  endloop
 endfacet
endsolid
